<?xml version="1.0" standalone="no"?>
<!DOCTYPE svg PUBLIC "-//W3C//DTD SVG 20010904//EN"
 "http://www.w3.org/TR/2001/REC-SVG-20010904/DTD/svg10.dtd">
<svg version="1.0" xmlns="http://www.w3.org/2000/svg"
 width="1024.000000pt" height="1024.000000pt" viewBox="0 0 1024.000000 1024.000000"
 preserveAspectRatio="xMidYMid meet">

<g transform="translate(0.000000,1024.000000) scale(0.100000,-0.100000)"
fill="#000000" stroke="none">
<path d="M8349 9491 c-17 -13 -27 -36 -34 -78 -11 -57 -11 -58 -42 -55 -48 5
-111 -16 -128 -42 -21 -32 -9 -81 27 -111 23 -20 41 -25 83 -25 l53 0 4 -57
c4 -46 10 -61 32 -80 64 -54 136 -15 144 79 l4 53 65 0 c59 0 67 3 89 28 16
19 24 40 24 67 0 53 -31 76 -114 85 l-64 7 -4 54 c-3 33 -12 62 -23 74 -24 26
-84 27 -116 1z"/>
<path d="M6997 9443 c-12 -15 -37 -42 -54 -60 -18 -17 -33 -41 -33 -53 0 -20
55 -99 89 -127 32 -27 121 -8 121 26 0 5 14 22 30 39 39 41 38 71 -6 124 -71
87 -107 99 -147 51z"/>
<path d="M3831 9359 c-40 -17 -97 -77 -112 -116 -5 -13 -9 -155 -9 -314 0
-184 -4 -289 -10 -289 -5 0 -37 21 -70 46 -115 87 -168 114 -227 114 -83 0
-145 -39 -186 -115 -21 -39 -22 -53 -25 -402 l-3 -361 -103 -4 c-91 -3 -107
-6 -143 -30 -114 -75 -114 -255 0 -342 64 -49 104 -59 231 -60 l118 -1 -4
-200 c-3 -110 -1 -242 4 -293 19 -199 101 -466 187 -608 l38 -65 -16 -42 c-14
-37 -16 -114 -16 -645 l0 -602 -40 0 c-177 0 -311 76 -374 210 l-26 55 -6 530
c-5 517 -6 532 -28 600 -85 260 -306 476 -548 539 -276 72 -570 -99 -613 -355
-14 -81 -8 -123 26 -198 43 -95 102 -153 213 -210 154 -79 141 -34 141 -500 1
-516 7 -591 60 -745 88 -255 222 -422 445 -557 225 -136 438 -201 660 -201
l100 0 0 -327 c0 -314 1 -329 23 -401 72 -228 196 -357 412 -431 88 -30 105
-33 240 -35 131 -2 153 -5 225 -30 72 -26 92 -29 210 -28 103 0 147 4 212 22
104 28 140 28 276 -4 141 -33 267 -30 392 9 63 20 109 26 215 30 227 9 335 52
470 187 96 96 149 180 185 291 l24 77 1 823 c0 453 4 856 7 894 l6 70 101 50
c320 157 508 266 702 409 l129 95 3 -49 c3 -54 -5 -120 -38 -300 -36 -196 -12
-279 97 -334 80 -40 213 5 245 83 7 17 10 136 9 329 -1 166 1 327 4 356 7 53
9 55 56 80 114 59 212 153 261 251 103 205 75 438 -69 565 -49 43 -154 100
-185 100 -15 0 -17 6 -13 38 2 20 7 71 10 112 3 41 12 170 20 286 8 116 21
324 29 463 8 139 17 255 20 259 4 3 19 -2 34 -12 67 -43 114 -58 170 -54 47 4
60 10 84 37 35 39 36 76 8 246 -11 66 -20 123 -20 126 0 3 41 39 90 79 110 89
130 115 130 171 0 89 -71 135 -247 159 -105 14 -91 -1 -142 165 -17 55 -40
115 -51 133 -44 72 -135 94 -197 46 -38 -29 -51 -51 -113 -199 l-46 -110 -144
-6 c-157 -6 -190 -15 -229 -65 -23 -29 -27 -82 -10 -117 6 -12 54 -63 107
-113 l96 -91 -23 -77 c-12 -42 -29 -110 -36 -152 -15 -87 -8 -127 31 -173 35
-42 80 -49 153 -22 32 11 63 21 70 21 14 0 15 -178 1 -379 -36 -505 -51 -700
-55 -728 -5 -28 -10 -32 -47 -38 -97 -17 -308 -145 -468 -285 -137 -120 -321
-245 -467 -319 -95 -48 -113 -39 -74 37 38 75 111 273 137 369 22 84 27 130
35 333 5 129 12 265 15 301 l6 67 87 4 c99 5 131 18 204 87 101 93 103 187 7
280 -58 56 -113 75 -200 69 l-71 -5 3 376 3 377 -27 41 c-48 73 -165 105 -241
67 -18 -9 -68 -43 -113 -75 -44 -33 -84 -59 -87 -59 -4 0 -7 115 -7 256 0 146
-5 273 -11 297 -14 58 -69 130 -115 152 -37 18 -83 19 -1088 20 -943 0 -1053
-1 -1085 -16z m1937 -265 c34 -24 52 -68 52 -129 0 -68 -18 -106 -65 -135 -42
-26 -79 -22 -126 12 -88 65 -77 197 21 249 42 23 88 24 118 3z m1959 -137 c9
-18 31 -70 48 -117 l30 -85 104 -11 c99 -11 120 -20 121 -50 0 -5 -27 -32 -61
-60 -34 -27 -73 -59 -87 -70 l-26 -21 22 -96 c12 -53 22 -110 22 -127 l0 -31
-32 17 c-18 9 -70 41 -115 71 l-81 54 -54 -30 c-46 -26 -178 -81 -194 -81 -9
0 0 31 36 135 17 49 29 99 26 111 -5 19 -52 67 -134 136 -18 14 -32 30 -32 36
0 12 83 22 188 22 45 0 82 4 82 9 0 21 104 230 112 225 4 -3 16 -20 25 -37z
m-4155 -532 l123 -95 0 -226 c0 -220 0 -225 -20 -220 -11 3 -67 6 -125 6
l-105 0 -2 315 c-1 173 0 315 3 315 2 0 59 -43 126 -95z m2214 72 c22 -19 28
-34 32 -80 4 -55 3 -58 -36 -97 -31 -31 -47 -40 -73 -40 -71 0 -145 75 -134
135 7 37 34 76 66 92 41 22 114 16 145 -10z m581 -99 c-4 -62 -7 -204 -7 -314
l0 -201 -110 1 -110 0 0 202 c0 111 -3 215 -6 232 -6 28 -1 34 67 85 41 31 88
67 104 81 17 14 39 25 49 26 18 0 19 -6 13 -112z m-564 -357 l127 -1 0 -86 0
-87 -327 7 c-181 3 -640 7 -1020 8 l-693 2 0 61 c0 33 -3 69 -6 80 -5 20 0 20
893 19 494 -1 955 -2 1026 -3z m503 -628 c22 -219 -3 -496 -61 -678 -102 -316
-332 -575 -640 -721 -50 -24 -100 -53 -110 -64 -11 -12 -31 -20 -49 -20 -18 0
-47 -8 -66 -19 -108 -57 -203 -113 -266 -153 -70 -45 -75 -47 -156 -49 -99 -3
-127 8 -291 120 -158 107 -165 111 -231 111 -49 0 -73 7 -155 48 -122 61 -300
179 -369 246 -181 173 -315 410 -357 627 -25 133 -40 435 -27 530 7 44 14 85
17 90 4 5 546 9 1380 9 l1373 0 8 -77z m1097 -740 c-3 -49 -13 -160 -24 -248
-10 -88 -19 -178 -19 -201 0 -37 -3 -43 -32 -55 -18 -7 -77 -47 -133 -88 -248
-185 -556 -371 -730 -438 -38 -16 -73 -29 -77 -31 -9 -4 -11 402 -2 433 5 21
81 71 252 164 195 108 385 246 545 398 87 83 184 153 213 153 7 0 9 -30 7 -87z
m-4982 63 c173 -53 295 -171 350 -341 22 -68 23 -87 30 -590 4 -286 10 -536
14 -555 4 -19 26 -73 48 -120 93 -192 276 -307 542 -342 l85 -11 0 -142 c0
-78 -3 -157 -7 -175 l-6 -33 -120 7 c-165 10 -333 60 -464 137 -61 37 -150
115 -141 125 4 3 44 -13 90 -35 45 -22 94 -42 108 -46 14 -3 -15 14 -65 38
-49 25 -111 63 -138 85 -26 22 -51 42 -55 44 -17 7 -102 121 -136 181 -72 129
-77 172 -84 717 l-7 485 -28 57 c-35 71 -83 114 -184 167 -128 67 -172 125
-160 213 15 110 181 178 328 134z m5340 -101 c39 -85 16 -191 -60 -275 -71
-79 -76 -68 -55 116 9 82 19 175 21 207 l6 58 34 -33 c20 -18 44 -51 54 -73z
m-1621 -637 c3 -1182 -2 -2345 -10 -2400 -13 -91 -47 -160 -112 -229 -67 -69
-142 -107 -230 -116 l-67 -6 14 46 c10 35 14 139 15 449 1 221 2 422 3 445 1
34 -4 48 -28 74 -17 17 -45 38 -63 46 -31 13 -38 12 -77 -7 -24 -12 -49 -28
-57 -37 -10 -13 -14 -113 -18 -467 -4 -331 -9 -459 -19 -481 -24 -57 -78 -102
-146 -120 -110 -30 -205 -5 -258 67 -31 42 -39 200 -31 623 l6 370 -25 27
c-35 37 -96 53 -139 35 -18 -8 -42 -24 -53 -37 -19 -21 -20 -40 -25 -515 -6
-555 0 -514 -84 -557 -140 -72 -334 9 -365 151 -7 33 -11 197 -11 452 0 338
-2 406 -15 433 -17 35 -61 66 -94 66 -39 0 -90 -28 -111 -62 -21 -32 -21 -41
-16 -463 3 -267 9 -450 16 -484 6 -29 9 -55 6 -58 -8 -8 -154 36 -205 62 -95
48 -149 114 -193 235 l-23 65 -3 1000 c-2 550 -1 1109 3 1242 l7 243 62 -53
c125 -108 280 -204 385 -238 36 -12 72 -26 78 -31 10 -8 13 -86 13 -314 0
-326 3 -348 53 -403 30 -32 94 -61 138 -61 71 0 169 44 314 141 l70 46 100 -2
c100 -2 100 -2 153 -42 64 -48 202 -126 255 -143 79 -25 164 16 208 101 17 34
19 60 19 236 0 109 3 249 7 311 l6 112 108 56 c110 58 277 176 371 264 29 27
56 49 61 50 4 0 7 -55 7 -122z m-1099 -477 c35 -35 39 -44 39 -89 0 -45 -4
-55 -35 -87 -31 -31 -42 -35 -86 -35 -27 0 -63 7 -78 15 -136 70 -88 235 68
235 49 0 57 -3 92 -39z m2476 1 c6 -4 14 -19 18 -32 15 -61 -98 -99 -118 -40
-5 15 -5 36 2 53 9 23 16 27 48 27 21 0 43 -4 50 -8z"/>
<path d="M4159 7261 c-78 -16 -155 -77 -185 -150 -19 -45 -18 -162 2 -209 37
-89 122 -144 223 -144 77 -1 131 19 180 65 138 131 89 373 -88 430 -56 18 -74
19 -132 8z"/>
<path d="M5555 7247 c-120 -48 -177 -122 -177 -236 -1 -150 95 -250 238 -251
117 0 195 46 244 143 36 72 39 132 10 210 -23 60 -68 109 -122 131 -44 19
-149 20 -193 3z"/>
<path d="M4713 6868 c-28 -29 -29 -60 -4 -113 19 -43 82 -105 106 -105 19 0
21 -118 2 -143 -17 -24 -86 -47 -112 -38 -11 4 -33 31 -50 59 -16 29 -39 54
-50 58 -30 8 -71 -11 -91 -42 -15 -23 -16 -32 -6 -71 37 -138 170 -212 301
-168 28 9 65 28 81 41 l29 25 54 -36 c94 -63 184 -57 254 17 108 114 111 199
8 238 -26 10 -32 9 -47 -10 -10 -12 -18 -31 -18 -42 0 -33 -18 -56 -54 -68
-69 -23 -116 27 -116 124 0 52 2 56 32 72 87 45 126 154 73 204 -22 21 -29 22
-62 12 -67 -19 -127 -23 -178 -12 -111 24 -128 24 -152 -2z"/>
<path d="M8629 8761 c-23 -23 -29 -38 -29 -73 0 -24 -3 -60 -6 -80 l-7 -38
-83 0 c-72 0 -86 -3 -108 -22 -39 -35 -39 -101 0 -147 25 -30 29 -31 104 -31
87 0 90 -3 90 -83 0 -48 23 -102 48 -116 62 -33 127 8 137 87 11 87 16 111 23
116 4 2 30 0 57 -5 66 -12 105 0 133 41 30 45 28 83 -7 122 -26 30 -34 33
-102 36 -41 2 -80 9 -86 14 -8 7 -13 37 -13 85 0 65 -3 77 -25 98 -35 36 -88
34 -126 -4z"/>
<path d="M8384 7981 c-34 -20 -44 -59 -44 -165 0 -28 -4 -57 -9 -65 -6 -9 -39
-16 -99 -20 -101 -7 -123 -19 -143 -78 -13 -41 2 -87 35 -106 11 -7 61 -14
111 -17 l90 -5 10 -90 c12 -102 15 -109 56 -131 37 -19 84 -6 119 31 18 19 23
39 27 108 l6 84 77 -1 c65 -1 83 3 107 20 52 39 56 97 10 150 -21 24 -33 28
-105 33 -44 4 -84 10 -89 14 -4 5 -9 50 -11 100 -3 102 -12 129 -49 146 -35
16 -64 14 -99 -8z"/>
<path d="M6653 7304 c-16 -4 -24 -15 -29 -41 -10 -53 3 -134 25 -156 18 -19
25 -19 157 -7 171 14 207 23 233 57 45 56 9 120 -74 133 -65 10 -284 20 -312
14z"/>
<path d="M2960 7290 c-150 -6 -181 -14 -201 -51 -16 -30 -3 -82 27 -110 25
-24 28 -24 192 -21 182 4 211 11 237 62 16 31 20 78 7 96 -13 20 -50 34 -84
32 -18 -1 -98 -4 -178 -8z"/>
<path d="M6765 7061 c-20 -4 -26 -9 -17 -14 6 -5 12 -17 12 -28 0 -14 7 -19
30 -19 25 0 30 4 30 24 0 25 26 43 33 23 2 -6 6 -4 10 6 5 14 0 17 -31 16 -20
-1 -50 -4 -67 -8z"/>
</g>
</svg>
